<?xml version="1.0" encoding="UTF-8"?>
<svg id="Proposal_3_copy" data-name="Proposal 3 copy" xmlns="http://www.w3.org/2000/svg" viewBox="0 0 506.67 742.76">
  <defs>
    <style>
      .cls-1 {
        fill: #fff;
      }
    </style>
  </defs>
  <path class="cls-1" d="m502.13,388.11c2.07-1.17,3.83-2.34,4.52-4.71l.02-.99-.71-1.21c-.45-.78-.9-1.56-1.39-2.32-7.72-12.13-15.44-24.25-23.17-36.38,12.12-19.09,21.86-39.05,21.86-66.9,0-16.58-2.9-28.24-8.86-35.65-4.91-6.1-11.92-9.2-20.84-9.2-22.91,0-33.14,17.33-41.03,35.03l-63.64-99.9c-14.02-22.01-28.04-44.01-42.06-66.02-11.77-18.48-23.53-36.97-35.29-55.45l-26.77-42.07c-.95-1.49-2.41-2.35-4-2.35h-.01c-1.63,0-3.12.89-4.09,2.43-.13.21-.25.42-.38.62-.13.22-.26.44-.4.65l-18.1,28.41c-11.6,18.2-23.2,36.4-34.8,54.61l-102.48,160.91c-12.64-6.08-26.74-9.42-40.61-9.42-27.65,0-59.93,10.01-59.93,38.2,0,10.79,9.13,18.63,25.69,32.85,6.78,5.82,14.61,12.55,22.65,20.3-4.01,6.3-8.02,12.6-12.04,18.89l-2.08,3.27c-5.89,9.24-11.97,18.8-18.01,28.17-.97,1.51-1.3,2.93-.99,4.22.31,1.25,1.21,2.31,2.68,3.15l86.39,49.15c.25,3.41.38,6.89.38,10.44,0,4.04.16,7.97.47,11.78l-59.82-34.8c-7.34-4.27-14.93-8.7-22.42-12.99-.85-.49-2.49-1.27-3.93-1.05-1.6.24-2.86,1.18-3.46,2.57-.61,1.42-.41,3.09.54,4.47,1.51,2.17,3.14,4.31,4.72,6.37.63.82,1.25,1.64,1.88,2.47l10.12,13.43c13.81,18.33,27.63,36.67,41.44,54.99l26.43,35.05c10.8,14.31,21.59,28.63,32.38,42.95,12.55,16.65,25.09,33.3,37.63,49.96l86.12,114.34c1.06,1.4,2.47,2.18,3.97,2.18h0c1.5,0,2.91-.78,3.96-2.18l2.89-3.85c3.13-4.18,6.27-8.37,9.41-12.54l3.24-4.3c19.45-25.82,38.89-51.64,58.35-77.45,17.94-23.8,35.89-47.6,53.84-71.4l88.82-117.79c7.88-10.44,15.76-20.89,23.61-31.36.49-.66.83-1.4,1.16-2.12.15-.32.29-.64.45-.95l.09-.17-.03-.19c-.35-2.19-1.35-3.51-3.23-4.29-1.89-.78-3.39.09-4.7.86l-9.48,5.51c-21.99,12.78-43.97,25.56-65.96,38.35,3.96-9.27,7.74-18.71,11.43-28.16,22.51-12.81,45.01-25.62,67.53-38.41Zm-62.26,24.84c.06-.15.12-.31.18-.46,5.95-15.39,14.17-28.9,22.63-41.77l28.85,12.83-51.66,29.4Zm49.86-40.38l-3.76-1.67c-3.65-1.62-7.31-3.24-10.96-4.86l-7.12-3.17c.17-.25.33-.5.5-.74,1.25-1.88,2.5-3.73,3.74-5.57,1.28-1.89,2.54-3.78,3.8-5.66l13.81,21.67ZM265.3,20.27l162.87,255.66c-2.68,6.26-5.49,12.63-8.86,18.53-5.21,9.14-12,18.87-17.68,26.56-6.5-6.79-15.25-10.57-25.64-11.01-1.08-.05-2.16-.07-3.2-.07-2.94,0-5.74.18-8.39.54-.9-16.71-4.69-29.88-11.29-39.21-7.64-10.81-18.95-16.61-33.6-17.22-.71-.03-1.42-.04-2.12-.04-6.41,0-12.23,1.23-17.37,3.67-9.51-14.1-24.9-17.37-34.77-18.29.03-63.76.04-127.53.04-191.29v-27.83Zm-26.32,277.58c-1.41,1.59-40.72,26.33-47.93,62.23-3.95-6.97-9.07-13.42-15.71-18.75l.8.45c.1-.21,10.14-21.64,25.72-42.46h0s.04-.05.06-.08c.88-1.18,1.8-2.37,2.74-3.57h0c13.18-16.8,31.88-34.94,51.49-35.52h0c.76-.02,1.53-.03,2.3,0,1.16.05,2.31.11,3.45.19,0,0,0,0,.01,0,1.14.08,2.26.18,3.36.3h0c13.62,1.54,24.43,7.16,23.41,31.63-1.61,38.46-47.82,99.35-63.89,98.68-9.51-.4-20.71-4.43-20-21.36,1.43-34.29,34.42-71.94,34.75-72.32l-.55.56Zm14.79,93.06c24.09-23.6,48.44-67.48,49.71-98,.19-4.53.04-8.63-.4-12.35,1.34-1.6,5.79-5.77,15.55-5.36,9.22.39,28.39,1.19,26.33,50.3,0,.18-.02.37-.03.56-.24.4-.4.74-.51.97l.44.24c-3,45.33-48.04,97.98-69.3,97.09-8.31-.35-14.32-3.12-17.89-8.23-5.93-8.53-4.45-21.72-3.92-25.22Zm64.22,25c3.83-4.06,7.41-8.31,10.6-12.51,16.9-22.2,27.78-47.19,30.56-69.74,2.3-1.27,7.03-2.89,15.96-2.51,5.11.21,20.65.86,19.41,30.54-1.42,34.02-34.91,83.35-55.98,82.46-9.62-.4-16.08-3.22-19.21-8.38-3.7-6.12-2.48-15.33-1.34-19.86ZM256.1,20.53v25.68c0,64.27,0,128.53.03,192.8-22.12.46-44.62,15.16-66.88,43.72-13.95,17.89-23.96,36.46-28.26,44.99-5.22-2.05-10.87-3.56-16.88-4.5.45-3.96.68-8.02.68-12.15,0-20.31-9.75-39.14-27.45-53.03-2.77-2.17-5.69-4.17-8.72-6.01L256.1,20.53ZM55,336.19c5.57,5.73,11.13,11.96,16.41,18.73l-39.08,17.38c-.15.07-.3.13-.45.18l23.12-36.29Zm-24.96,47.36l47.06-20.93c12.18,17.37,22.12,38,25.91,62.46l-72.98-41.53Zm226.14,310.56v26.11S37.24,429.77,37.24,429.77c.53.3,1.06.6,1.58.9l29.76,17.31c12.57,7.31,25.24,14.69,37.97,22.09,10.61,63.87,64.47,92.91,103.88,92.91,14.43,0,27.43-3.36,38.76-9.98,1.58.92,3.17,1.84,4.75,2.76,1.74,1.01,2.3,1.99,2.29,4.05-.05,44.77-.05,90.28-.05,134.29Zm197.9-246.78l30.16-17.54s.02-.01.03-.02l-218.8,290.25c-.02-.23-.03-.46-.03-.69v-38.03c0-40.84,0-81.69-.03-122.53,0-.35.03-.65.1-.92,10.81,3.41,25.16,5.14,42.95,5.14,32.98,0,60.38-16.3,83.76-49.83,9.29-13.32,17.3-28.35,24.59-44.15,12.42-7.22,24.84-14.45,37.26-21.67Zm-60.65,24.64h0c-.64,1.27-1.28,2.52-1.92,3.76-.1.2-.21.4-.32.6-.59,1.14-1.19,2.27-1.79,3.38-.05.08-.09.17-.14.25-1.37,2.55-2.76,5.04-4.16,7.46-19.84,34.34-43.15,56.04-76.65,56.04-7.14,0-13.2-.29-18.37-.77h0c-5.86-.54-10.56-1.33-14.31-2.22h0c-6.85-1.62-10.58-3.58-12.53-4.98,23.48-26.1,28.2-68.38,20.16-92.86v-.26c0,.26-.59,26.43-10.38,52.01-2.24,5.86-4.77,11.2-7.56,16.02-1.36,2.35-2.79,4.56-4.28,6.66-.02.03-.05.06-.07.1-1.5,2.1-3.06,4.07-4.68,5.92-5.07,5.77-10.77,10.32-17.1,13.65-.81.42-1.62.83-2.45,1.21-.12.06-.25.11-.37.17-.71.32-1.43.63-2.16.93-.17.07-.34.14-.51.2-.71.28-1.43.55-2.16.8-.16.05-.31.11-.47.17-.87.29-1.75.57-2.64.83-5.66,1.62-11.71,2.44-18.16,2.44-22.71,0-64.95-15.4-80.38-59.73h0c-1.38-3.97-2.55-8.18-3.47-12.63-1.53-7.4-2.38-15.46-2.38-24.25,0-1.57-.03-3.13-.07-4.68,0-.25-.02-.49-.02-.74-1.18-37.25-14.44-66.99-31.35-90.79-.07-.09-.13-.19-.2-.28-.88-1.24-1.77-2.46-2.67-3.67,0,0,0,0,0,0h0c-7.66-10.25-15.93-19.35-24.1-27.44h0c-1.12-1.11-2.24-2.2-3.35-3.28-.02-.02-.03-.03-.05-.05-1.11-1.07-2.22-2.13-3.33-3.16,0,0,0,0,0,0h0c-7.33-6.87-14.39-12.94-20.64-18.3-7.88-6.77-17.65-15.15-18.89-18.38.39-14.51,26.54-18.36,40.41-18.36,11.16,0,21.34,2.32,30.22,6.22,1.3.57,2.57,1.19,3.81,1.83.23.12.46.23.68.35,1.25.66,2.48,1.34,3.67,2.07,17.51,10.63,28.14,27.77,28.14,43.76,0,28.89-3.03,50.02-3.02,50.02.6-.83,6.96-7.21,11.64-20.19,29.52,2.26,46.21,19.35,55.65,38.06,1.01,5.2,2.93,9.82,5.67,13.7,6.42,19.21,6.62,36.75,6.62,38.36,0-.38,1.79-14.13-.05-31.57,5.56,4.22,12.71,6.71,21.12,7.06,4.37.18,9.28-1.43,14.46-4.45.48,7.35,2.3,15.96,7.3,23.2,6.34,9.18,16.11,14.1,29.03,14.64,8.72.36,18.25-4.03,27.37-10.76.49,4.93,1.83,10.12,4.67,14.87,5.87,9.8,16.27,15.07,30.92,15.69,31.18,1.3,69.82-58.37,71.49-98.29.27-6.46-.15-12.36-1.21-17.64,6.64-8.37,19.23-24.89,28.14-40.53,2.51-4.4,4.66-8.84,6.66-13.26.07-.15.14-.3.21-.45.71-1.58,1.4-3.15,2.08-4.72,0,0,0,0,0-.01h0c.68-1.58,1.36-3.16,2.02-4.73,8.34-19.6,13.68-30.69,26.33-30.69,3.76,0,10.18-.59,10.18,25.33,0,19.48-5.66,34.17-14.01,48.59-.84,1.44-1.7,2.88-2.58,4.33h0c-.89,1.44-1.79,2.88-2.73,4.33-3.81,5.93-7.97,11.97-12.28,18.43-10.94,16.38-22.25,33.32-30.31,54.16-3.03,7.83-6.03,15.48-9.03,22.9-1.9,4.7-3.8,9.31-5.72,13.81h0c-4.47,10.53-8.99,20.51-13.66,29.81Z"/>
</svg>